{"title":"[Vietsub] The.Da.Vinci.Code.1280x536p.x264 [2006]","uid":7688452,"size":2362160488,"categoryP":"video","categoryS":"hd___movies","magnet":"?xt=urn:btih:05bacad32a99b095eb9e03326e628e7ab00947cf&amp;dn=%5BVietsub%5D+The.Da.Vinci.Code.1280x536p.x264+%5B2006%5D&amp;tr=udp%3A%2F%2Ftracker.openbittorrent.com%3A80&amp;tr=udp%3A%2F%2Fopen.demonii.com%3A1337&amp;tr=udp%3A%2F%2Ftracker.coppersurfer.tk%3A6969&amp;tr=udp%3A%2F%2Fexodus.desync.com%3A6969","seeders":1,"leechers":0,"uploader":"jessketeer","files":1,"time":1349026511,"description":"\nFormat                                   : Matroska\nFormat version                           : Version 2\nFile size                                : 2.20 GiB\nDuration                                 : 2h 54mn\nOverall bit rate                         : 1 801 Kbps\nEncoded date                             : UTC 2012-09-14 19:01:59\nWriting application                      : mkvmerge v5.6.0 ('Kenya Kane') built on May 27 2012 16:44:04\nWriting library                          : libebml v1.2.3 + libmatroska v1.3.0\n\nVideo\nID                                       : 1\nFormat                                   : AVC\nFormat/Info                              : Advanced Video Codec\nFormat profile                           : &lt;a class=&quot;__cf_email__&quot; href=&quot;/cdn-cgi/l/email-protection&quot; data-cfemail=&quot;a2eacbc5cae2ee918c93&quot;&gt;[email&amp;#160;protected]&lt;/a&gt;&lt;script cf-hash='f9e31' type=&quot;text/javascript&quot;&gt;\n/* &lt;![CDATA[ */!function(){try{var t=&quot;currentScript&quot;in document?document.currentScript:function(){for(var t=document.getElementsByTagName(&quot;script&quot;),e=t.length;e--;)if(t[e].getAttribute(&quot;cf-hash&quot;))return t[e]}();if(t&amp;&amp;t.previousSibling){var e,r,n,i,c=t.previousSibling,a=c.getAttribute(&quot;data-cfemail&quot;);if(a){for(e=&quot;&quot;,r=parseInt(a.substr(0,2),16),n=2;a.length-n;n+=2)i=parseInt(a.substr(n,2),16)^r,e+=String.fromCharCode(i);e=document.createTextNode(e),c.parentNode.replaceChild(e,c)}}}catch(u){}}();/* ]]&gt; */&lt;/script&gt;\nFormat settings, CABAC                   : Yes\nFormat settings, ReFrames                : 4 frames\nCodec ID                                 : V_MPEG4/ISO/AVC\nDuration                                 : 2h 54mn\nBit rate                                 : 1 416 Kbps\nWidth                                    : 1 280 pixels\nHeight                                   : 536 pixels\nDisplay aspect ratio                     : 2.40:1\nFrame rate                               : 25.000 fps\nColor space                              : YUV\nChroma subsampling                       : 4:2:0\nBit depth                                : 8 bits\nScan type                                : Progressive\nBits/(Pixel*Frame)                       : 0.083\nStream size                              : 1.69 GiB (77%)\nWriting library                          : x264 core 125 r2200 999b753\n\nDefault                                  : Yes\nForced                                   : No\n\nAudio\nID                                       : 2\nFormat                                   : AC-3\nFormat/Info                              : Audio Coding 3\nMode extension                           : CM (complete main)\nFormat settings, Endianness              : Big\nCodec ID                                 : A_AC3\nDuration                                 : 2h 54mn\nBit rate mode                            : Constant\nBit rate                                 : 384 Kbps\nChannel(s)                               : 2 channels\nChannel positions                        : Front: L R\nSampling rate                            : 44.1 KHz\nBit depth                                : 16 bits\nCompression mode                         : Lossy\nStream size                              : 480 MiB (21%)\nDefault                                  : Yes\nForced                                   : No\n\n\n\nCap: http://i.imgur.com/kPNiC.jpg","torrent":{"xt":"urn:btih:05bacad32a99b095eb9e03326e628e7ab00947cf","amp;dn":"%5BVietsub%5D+The.Da.Vinci.Code.1280x536p.x264+%5B2006%5D","amp;tr":["udp%3A%2F%2Ftracker.openbittorrent.com%3A80","udp%3A%2F%2Fopen.demonii.com%3A1337","udp%3A%2F%2Ftracker.coppersurfer.tk%3A6969","udp%3A%2F%2Fexodus.desync.com%3A6969"],"infoHash":"05bacad32a99b095eb9e03326e628e7ab00947cf","infoHashBuffer":{"type":"Buffer","data":[5,186,202,211,42,153,176,149,235,158,3,50,110,98,142,122,176,9,71,207]},"announce":[],"urlList":[]}}